<?xml version="1.0" encoding="utf-8"?>
<!-- Generator: Adobe Illustrator 26.1.0, SVG Export Plug-In . SVG Version: 6.00 Build 0)  -->
<svg version="1.1" id="图层_1" xmlns="http://www.w3.org/2000/svg" xmlns:xlink="http://www.w3.org/1999/xlink" x="0px" y="0px"
	 viewBox="0 0 128 128" style="enable-background:new 0 0 128 128;" xml:space="preserve">
<style type="text/css">
	.st0{fill:#363D52;stroke:#212532;stroke-width:4;}
	.st1{fill:#478CBF;}
	.st2{fill:#FFFFFF;}
</style>
<path class="st0" d="M16,2h96c7.7,0,14,6.3,14,14v96c0,7.7-6.3,14-14,14H16c-7.7,0-14-6.3-14-14V16C2,8.3,8.3,2,16,2z"/>
<g transform="translate(12.322 12.322)scale(.101)">
	<path class="st1" d="M436,800 M919,427c20-26,38.7-53,56-81c-23.3-39.3-51-75.3-83-108c-28.7,13.3-56,29-82,47
		c-26.7-24.7-56-46-88-64c4.7-34,7.3-68,8-102c-39.3-18.7-80.3-32.7-123-42c-17.3,28.7-32.7,58.3-46,89c-32.7-4.7-65.3-4.7-98,0
		c-13.3-30.7-28.7-60.3-46-89c-42.7,9.3-83.7,23.3-123,42c0.7,34,3.3,68,8,102c-32,18-61.3,39.3-88,64c-26-18-53.3-33.7-82-47
		c-32,32.7-59.7,68.7-83,108c17.3,28,36,55,56,81v318c0,276,813,276,814,0"/>
</g>
<rect x="91.4" y="53.1" transform="matrix(0.7071 0.7071 -0.7071 0.7071 69.3206 -51.1302)" class="st2" width="10" height="10"/>
<polyline class="st2" points="44.5,74.6 30.4,88.8 23.3,81.7 44.5,60.5 65.7,81.7 87,60.5 94,67.5 65.7,95.8 "/>
</svg>
